# This file uses centimeters as units for non-parametric coordinates.

mtllib BatHead.mtl
g default
v -0.295022 -0.294936 0.294936
v -0.295022 0.294935 0.294936
v -0.295022 0.294935 -0.294935
v -0.295022 -0.294936 -0.294935
v -0.000086 -0.294936 0.294936
v -0.000086 0.294935 0.294936
v -0.000086 0.294935 -0.294935
v -0.000086 -0.294936 -0.294935
v -0.295022 0.067841 0.294936
v -0.176619 0.090865 0.294936
v -0.100350 -0.002672 0.294936
v -0.045667 -0.032892 0.294936
v -0.064374 -0.073185 0.294936
v -0.132008 -0.106282 0.294936
v -0.193888 -0.068867 0.294936
v -0.221229 -0.001233 0.294936
v -0.209717 0.067841 0.294936
v 0.294849 -0.294936 0.294936
v 0.294849 0.294935 0.294936
v 0.294849 0.294935 -0.294935
v 0.294849 -0.294936 -0.294935
v 0.294849 0.067841 0.294936
v 0.176447 0.090865 0.294936
v 0.100179 -0.002672 0.294936
v 0.045496 -0.032892 0.294936
v 0.064202 -0.073185 0.294936
v 0.131837 -0.106282 0.294936
v 0.193716 -0.068867 0.294936
v 0.221057 -0.001233 0.294936
v 0.209545 0.067841 0.294936
v -0.403009 0.099659 0.110094
v -0.188448 0.149118 0.110094
v -0.499453 0.518054 0.110094
v -0.284891 0.567512 0.110094
v -0.499453 0.518054 -0.110094
v -0.284891 0.567512 -0.110094
v -0.403009 0.099659 -0.110094
v -0.188448 0.149118 -0.110094
v -0.553879 0.582617 0.000000
v -0.199121 0.366970 -0.148627
v -0.278851 0.051169 -0.148627
v -0.488780 0.300201 -0.148627
v -0.134022 0.084554 0.000000
v -0.423680 0.017786 0.000000
v -0.278851 0.051169 0.148627
v -0.199121 0.366970 0.148627
v -0.409050 0.616002 0.148627
v -0.488780 0.300201 0.148627
v -0.264221 0.649386 0.000000
v -0.409050 0.616002 -0.148627
v -0.430750 0.710140 0.000000
v -0.343950 0.333586 -0.198169
v -0.257151 -0.042969 0.000000
v -0.150845 0.378098 0.000000
v -0.537055 0.289073 0.000000
v -0.394729 0.132458 0.053594
v -0.287979 0.090767 0.092126
v -0.343951 0.333586 0.141669
v -0.468473 0.304882 0.092126
v -0.210251 0.174982 0.053594
v -0.219428 0.362289 0.092126
v -0.293172 0.534713 0.053594
v -0.399922 0.576404 0.092126
v -0.477650 0.492189 0.053594
v 0.416351 0.099659 0.110094
v 0.201789 0.149118 0.110094
v 0.512794 0.518054 0.110094
v 0.298233 0.567512 0.110094
v 0.512794 0.518054 -0.110094
v 0.298233 0.567512 -0.110094
v 0.416351 0.099659 -0.110094
v 0.201789 0.149118 -0.110094
v 0.567220 0.582617 0.000000
v 0.212462 0.366970 -0.148627
v 0.292192 0.051169 -0.148627
v 0.502120 0.300201 -0.148627
v 0.147364 0.084554 0.000000
v 0.437020 0.017786 0.000000
v 0.292192 0.051169 0.148627
v 0.212462 0.366970 0.148627
v 0.422391 0.616002 0.148627
v 0.502120 0.300201 0.148627
v 0.277562 0.649386 0.000000
v 0.422391 0.616002 -0.148627
v 0.444091 0.710140 0.000000
v 0.357291 0.333586 -0.198169
v 0.270492 -0.042969 0.000000
v 0.164187 0.378098 0.000000
v 0.550396 0.289073 0.000000
v 0.408069 0.132458 0.053594
v 0.301320 0.090767 0.092126
v 0.357292 0.333586 0.141669
v 0.481813 0.304882 0.092126
v 0.223592 0.174982 0.053594
v 0.232768 0.362289 0.092126
v 0.306513 0.534713 0.053594
v 0.413263 0.576404 0.092126
v 0.490991 0.492189 0.053594
vt 0.873848 0.399199
vt 0.880668 0.396535
vt 0.877092 0.412049
vt 0.869136 0.410215
vt 0.885634 0.401916
vt 0.885048 0.413883
vt 0.873516 0.427563
vt 0.868550 0.422182
vt 0.880336 0.424899
vt 0.897699 0.399199
vt 0.902410 0.410215
vt 0.894454 0.412049
vt 0.890878 0.396535
vt 0.902996 0.422182
vt 0.898030 0.427563
vt 0.886499 0.413883
vt 0.885912 0.401916
vt 0.891210 0.424899
vt 0.705124 0.904137
vt 0.705124 0.899081
vt 0.708234 0.899081
vt 0.710181 0.899081
vt 0.710181 0.904137
vt 0.710300 0.899081
vt 0.715357 0.899081
vt 0.715357 0.904137
vt 0.713410 0.904137
vt 0.710300 0.904137
vt 0.707342 0.892234
vt 0.707672 0.893074
vt 0.706398 0.893881
vt 0.706398 0.892787
vt 0.705124 0.893074
vt 0.705455 0.892234
vt 0.706398 0.890271
vt 0.707672 0.890367
vt 0.705124 0.890367
vt 0.706398 0.887946
vt 0.707342 0.888648
vt 0.705455 0.888648
vt 0.710350 0.888753
vt 0.710020 0.889592
vt 0.709076 0.889039
vt 0.709076 0.887946
vt 0.710350 0.891460
vt 0.709076 0.891555
vt 0.708132 0.889592
vt 0.707802 0.888753
vt 0.710020 0.893179
vt 0.709076 0.893881
vt 0.707802 0.891460
vt 0.708132 0.893179
vt 0.721032 0.899921
vt 0.721363 0.898203
vt 0.721847 0.898484
vt 0.721517 0.899962
vt 0.721363 0.901789
vt 0.721847 0.901567
vt 0.722467 0.898203
vt 0.722797 0.900070
vt 0.722313 0.900030
vt 0.721982 0.898424
vt 0.722467 0.901789
vt 0.721982 0.901508
vt 0.710807 0.892234
vt 0.711750 0.892787
vt 0.711750 0.893881
vt 0.710476 0.893074
vt 0.711750 0.890271
vt 0.710476 0.890367
vt 0.712694 0.892234
vt 0.713024 0.893074
vt 0.713024 0.890367
vt 0.711750 0.887946
vt 0.710807 0.888648
vt 0.712694 0.888648
vt 0.713151 0.888753
vt 0.714424 0.887946
vt 0.714424 0.889039
vt 0.713481 0.889592
vt 0.715698 0.888753
vt 0.715368 0.889592
vt 0.714424 0.891555
vt 0.713151 0.891460
vt 0.715698 0.891460
vt 0.714424 0.893881
vt 0.713481 0.893179
vt 0.715368 0.893179
vt 0.723107 0.903580
vt 0.722622 0.903620
vt 0.722292 0.902142
vt 0.722776 0.901861
vt 0.722776 0.905447
vt 0.722292 0.905226
vt 0.721697 0.901861
vt 0.722181 0.902083
vt 0.721851 0.903688
vt 0.721367 0.903728
vt 0.722181 0.905166
vt 0.721697 0.905447
vt 0.718050 0.893074
vt 0.720579 0.893074
vt 0.720579 0.898130
vt 0.718050 0.898130
vt 0.723107 0.893074
vt 0.723107 0.898130
vt 0.707717 0.893953
vt 0.710245 0.893953
vt 0.710245 0.899009
vt 0.707717 0.899009
vt 0.712773 0.893953
vt 0.712773 0.899009
vt 0.720015 0.903116
vt 0.721079 0.903446
vt 0.721256 0.904390
vt 0.719829 0.904390
vt 0.721079 0.905334
vt 0.720015 0.905664
vt 0.718468 0.903446
vt 0.719532 0.903116
vt 0.719718 0.904390
vt 0.718290 0.904390
vt 0.719532 0.905664
vt 0.718468 0.905334
vt 0.714619 0.906048
vt 0.714289 0.904984
vt 0.714773 0.905062
vt 0.715103 0.905977
vt 0.714619 0.904209
vt 0.715103 0.904396
vt 0.713848 0.904209
vt 0.714178 0.905273
vt 0.713693 0.905195
vt 0.713363 0.904280
vt 0.713848 0.906048
vt 0.713363 0.905861
vt 0.717994 0.903995
vt 0.718180 0.905269
vt 0.716752 0.905269
vt 0.716929 0.904325
vt 0.717994 0.906543
vt 0.716929 0.906212
vt 0.716464 0.904540
vt 0.716641 0.905483
vt 0.715214 0.905483
vt 0.715400 0.904209
vt 0.716464 0.906427
vt 0.715400 0.906757
vt 0.712768 0.904209
vt 0.713253 0.904280
vt 0.712922 0.905195
vt 0.712438 0.905273
vt 0.713253 0.905861
vt 0.712768 0.906048
vt 0.711997 0.906048
vt 0.711513 0.905977
vt 0.711843 0.905062
vt 0.712327 0.904984
vt 0.711513 0.904396
vt 0.711997 0.904209
vt 0.715825 0.887946
vt 0.718353 0.887946
vt 0.718353 0.893002
vt 0.715825 0.893002
vt 0.716840 0.891253
vt 0.717493 0.890451
vt 0.717962 0.890192
vt 0.717802 0.889847
vt 0.717222 0.889563
vt 0.716692 0.889884
vt 0.716457 0.890464
vt 0.716556 0.891056
vt 0.715825 0.891056
vt 0.720881 0.887946
vt 0.720881 0.891056
vt 0.720150 0.891056
vt 0.720248 0.890464
vt 0.720014 0.889884
vt 0.719484 0.889563
vt 0.718904 0.889847
vt 0.718744 0.890192
vt 0.719212 0.890451
vt 0.719866 0.891253
vt 0.720881 0.893002
vt 0.712884 0.893953
vt 0.715412 0.893953
vt 0.715412 0.899009
vt 0.712884 0.899009
vt 0.717940 0.893953
vt 0.717940 0.899009
vt 0.715473 0.899921
vt 0.716248 0.899081
vt 0.716806 0.901502
vt 0.715564 0.901788
vt 0.717312 0.899497
vt 0.718047 0.901216
vt 0.717364 0.903922
vt 0.716300 0.903507
vt 0.718139 0.903083
vt 0.720918 0.899042
vt 0.720827 0.900909
vt 0.719586 0.900623
vt 0.720144 0.898203
vt 0.720092 0.902628
vt 0.719028 0.903044
vt 0.718344 0.900337
vt 0.719079 0.898618
vt 0.718253 0.902205
vt 0.264409 0.514055
vt 0.252043 0.505453
vt 0.247742 0.479646
vt 0.257957 0.454376
vt 0.281077 0.440397
vt 0.306346 0.452763
vt 0.313335 0.467817
vt 0.292905 0.479108
vt 0.352436 0.588199
vt 0.323941 0.553252
vt 0.303511 0.541961
vt 0.310500 0.526907
vt 0.335769 0.514542
vt 0.358889 0.528520
vt 0.369104 0.553790
vt 0.364803 0.579597
vn -0.000000 0.000000 1.000000
vn -0.000000 0.000000 1.000000
vn -0.000000 0.000000 1.000000
vn -0.000000 0.000000 1.000000
vn -0.000000 0.000000 1.000000
vn -0.000000 0.000000 1.000000
vn -0.000000 0.000000 1.000000
vn -0.000000 0.000000 1.000000
vn -0.000000 0.000000 1.000000
vn -0.000000 0.000000 1.000000
vn -0.000000 0.000000 1.000000
vn -0.000000 0.000000 1.000000
vn -0.000000 0.000000 1.000000
vn 0.000000 1.000000 0.000000
vn 0.000000 1.000000 0.000000
vn 0.000000 1.000000 0.000000
vn 0.000000 1.000000 0.000000
vn 0.000000 0.000000 -1.000000
vn 0.000000 0.000000 -1.000000
vn 0.000000 0.000000 -1.000000
vn 0.000000 0.000000 -1.000000
vn 0.000000 -1.000000 0.000000
vn 0.000000 -1.000000 0.000000
vn 0.000000 -1.000000 0.000000
vn 0.000000 -1.000000 0.000000
vn -1.000000 0.000000 0.000000
vn -1.000000 0.000000 0.000000
vn -1.000000 0.000000 0.000000
vn -1.000000 0.000000 0.000000
vn -1.000000 0.000000 0.000000
vn 0.000000 0.000000 1.000000
vn 0.000000 0.000000 1.000000
vn 0.000000 0.000000 1.000000
vn 0.000000 0.000000 1.000000
vn 0.000000 0.000000 1.000000
vn 0.000000 0.000000 1.000000
vn 0.000000 0.000000 1.000000
vn 0.000000 0.000000 1.000000
vn 0.000000 0.000000 1.000000
vn 0.000000 0.000000 1.000000
vn 0.000000 0.000000 1.000000
vn 0.000000 0.000000 1.000000
vn 0.000000 0.000000 1.000000
vn 0.000000 1.000000 0.000000
vn 0.000000 1.000000 0.000000
vn 0.000000 1.000000 0.000000
vn 0.000000 1.000000 0.000000
vn 0.000000 0.000000 -1.000000
vn 0.000000 0.000000 -1.000000
vn 0.000000 0.000000 -1.000000
vn 0.000000 0.000000 -1.000000
vn 0.000000 -1.000000 0.000000
vn 0.000000 -1.000000 0.000000
vn 0.000000 -1.000000 0.000000
vn 0.000000 -1.000000 0.000000
vn 1.000000 0.000000 0.000000
vn 1.000000 0.000000 0.000000
vn 1.000000 0.000000 0.000000
vn 1.000000 0.000000 0.000000
vn 1.000000 0.000000 0.000000
vn -0.354256 -0.298628 0.886185
vn 0.052127 -0.226136 0.972700
vn -0.000001 0.000000 1.000000
vn -0.411038 -0.094747 0.906681
vn 0.449231 -0.113419 0.886187
vn 0.411034 0.094746 0.906683
vn 0.354253 0.298628 0.886186
vn -0.052125 0.226137 0.972700
vn -0.449236 0.113418 0.886185
vn -0.878776 0.181333 0.441443
vn -0.177112 0.768354 0.615031
vn -0.224620 0.974447 -0.000000
vn -0.947651 0.319308 0.000000
vn 0.710722 0.547724 0.441444
vn 0.712246 0.701930 -0.000000
vn 0.582662 0.458797 -0.670828
vn -0.117702 0.510618 -0.851713
vn -0.724709 0.157437 -0.670828
vn 0.000000 -0.000000 -1.000000
vn -0.689038 -0.158829 -0.707107
vn 0.689038 0.158829 -0.707106
vn 0.724710 -0.157437 -0.670827
vn 0.117701 -0.510619 -0.851713
vn -0.582661 -0.458797 -0.670828
vn 0.224616 -0.974447 -0.000000
vn -0.712246 -0.701930 -0.000000
vn 0.947651 -0.319307 0.000000
vn 0.878776 -0.181331 0.441443
vn 0.177112 -0.768356 0.615029
vn -0.710721 -0.547726 0.441442
vn 0.974447 0.224619 0.000000
vn 0.904752 0.208553 0.371389
vn -0.974447 -0.224618 0.000000
vn -0.904753 -0.208552 0.371387
vn 0.147636 0.833291 0.532757
vn 0.147636 0.833291 0.532757
vn 0.147636 0.833291 0.532757
vn 0.147636 0.833291 0.532757
vn 0.890877 0.313000 0.329194
vn 0.890877 0.313000 0.329194
vn 0.890877 0.313000 0.329194
vn 0.890877 0.313000 0.329194
vn -0.497512 0.684580 0.532758
vn -0.497512 0.684580 0.532758
vn -0.497512 0.684580 0.532758
vn -0.497512 0.684580 0.532758
vn -0.938001 -0.108570 0.329190
vn -0.938001 -0.108570 0.329190
vn -0.938001 -0.108570 0.329190
vn -0.938001 -0.108570 0.329190
vn -0.890878 -0.313000 0.329193
vn -0.890878 -0.313000 0.329193
vn -0.890878 -0.313000 0.329193
vn -0.890878 -0.313000 0.329193
vn -0.147634 -0.833292 0.532756
vn -0.147634 -0.833292 0.532756
vn -0.147634 -0.833292 0.532756
vn -0.147634 -0.833292 0.532756
vn 0.497516 -0.684578 0.532758
vn 0.497516 -0.684578 0.532758
vn 0.497516 -0.684578 0.532758
vn 0.497516 -0.684578 0.532758
vn 0.938000 0.108570 0.329195
vn 0.938000 0.108570 0.329195
vn 0.938000 0.108570 0.329195
vn 0.937999 0.108570 0.329195
vn 0.354258 -0.298629 0.886184
vn 0.411040 -0.094747 0.906680
vn 0.000001 0.000001 1.000000
vn -0.052128 -0.226135 0.972700
vn -0.411033 0.094746 0.906684
vn -0.449230 -0.113418 0.886188
vn 0.052125 0.226138 0.972700
vn -0.354252 0.298628 0.886187
vn 0.449237 0.113419 0.886184
vn 0.878776 0.181328 0.441444
vn 0.947652 0.319304 0.000000
vn 0.224620 0.974446 0.000000
vn 0.177112 0.768354 0.615031
vn -0.712246 0.701930 0.000000
vn -0.710722 0.547723 0.441444
vn 0.117702 0.510618 -0.851713
vn -0.582663 0.458797 -0.670827
vn 0.724710 0.157435 -0.670828
vn 0.689038 -0.158829 -0.707107
vn -0.000000 -0.000000 -1.000000
vn -0.689039 0.158829 -0.707106
vn -0.117702 -0.510618 -0.851713
vn -0.724710 -0.157437 -0.670827
vn 0.582664 -0.458797 -0.670827
vn 0.712247 -0.701929 -0.000000
vn -0.224618 -0.974447 -0.000000
vn -0.947651 -0.319308 0.000000
vn -0.177112 -0.768355 0.615029
vn -0.878777 -0.181330 0.441442
vn 0.710724 -0.547723 0.441442
vn -0.904752 0.208553 0.371388
vn -0.974447 0.224618 -0.000000
vn 0.974447 -0.224619 0.000000
vn 0.904752 -0.208554 0.371387
vn -0.147636 0.833290 0.532758
vn -0.147636 0.833290 0.532758
vn -0.147636 0.833290 0.532758
vn -0.147636 0.833290 0.532758
vn -0.890877 0.312999 0.329196
vn -0.890877 0.312999 0.329196
vn -0.890877 0.312999 0.329196
vn -0.890877 0.312999 0.329196
vn 0.497511 0.684581 0.532759
vn 0.497511 0.684581 0.532759
vn 0.497511 0.684581 0.532759
vn 0.497511 0.684581 0.532759
vn 0.938002 -0.108570 0.329187
vn 0.938002 -0.108570 0.329187
vn 0.938002 -0.108570 0.329187
vn 0.938003 -0.108570 0.329187
vn 0.890879 -0.313005 0.329185
vn 0.890879 -0.313005 0.329185
vn 0.890879 -0.313005 0.329185
vn 0.890879 -0.313005 0.329185
vn 0.147634 -0.833291 0.532757
vn 0.147634 -0.833291 0.532757
vn 0.147634 -0.833291 0.532757
vn 0.147634 -0.833291 0.532757
vn -0.497515 -0.684579 0.532757
vn -0.497515 -0.684579 0.532757
vn -0.497515 -0.684579 0.532757
vn -0.497515 -0.684579 0.532757
vn -0.938000 0.108573 0.329194
vn -0.938000 0.108573 0.329194
vn -0.937999 0.108573 0.329194
vn -0.938000 0.108573 0.329194
s 1
g BatHead
usemtl lambert21SG
f 1/161/1 5/162/2 6/163/3 2/164/4 10/165/5 11/166/6 12/167/7 13/168/8 14/169/9 15/170/10 16/171/11 17/172/12 9/173/13
s off
f 2/101/14 6/102/15 7/103/16 3/104/17
f 3/185/18 7/186/19 8/187/20 4/188/21
f 4/107/22 8/108/23 5/109/24 1/110/25
f 4/19/26 1/20/27 9/21/28 2/22/29 3/23/30
s 1
f 9/173/13 17/172/12 10/165/5 2/164/4
f 10/209/5 17/210/12 16/211/11 15/212/10 14/213/9 13/214/8 12/215/7 11/216/6
s 2
f 18/174/31 22/175/32 30/176/33 29/177/34 28/178/35 27/179/36 26/180/37 25/181/38 24/182/39 23/183/40 19/184/41 6/163/42 5/162/43
s off
f 19/105/44 20/106/45 7/103/46 6/102/47
f 20/189/48 21/190/49 8/187/50 7/186/51
f 21/111/52 18/112/53 5/109/54 8/108/55
f 21/24/56 20/25/57 19/26/58 22/27/59 18/28/60
s 2
f 22/175/32 19/184/41 23/183/40 30/176/33
f 23/217/40 24/218/39 25/219/38 26/220/37 27/221/36 28/222/35 29/223/34 30/224/33
s 3
f 56/1/61 57/2/62 58/3/63 59/4/64
f 57/2/62 60/5/65 61/6/66 58/3/63
f 58/3/63 61/6/66 62/9/67 63/7/68
f 59/4/64 58/3/63 63/7/68 64/8/69
s 4
f 33/29/70 47/30/71 51/31/72 39/32/73
f 47/113/71 34/114/74 49/115/75 51/116/72
f 51/116/72 49/115/75 36/117/76 50/118/77
f 39/32/73 51/31/72 50/33/77 35/34/78
f 35/191/78 50/192/77 52/193/79 42/194/80
f 50/192/77 36/195/76 40/196/81 52/193/79
f 52/193/79 40/196/81 38/199/82 41/197/83
f 42/194/80 52/193/79 41/197/83 37/198/84
f 37/119/84 41/120/83 53/121/85 44/122/86
f 41/41/83 38/42/82 43/43/87 53/44/85
f 53/44/85 43/43/87 32/47/88 45/48/89
f 44/122/86 53/121/85 45/123/89 31/124/90
f 32/47/88 43/43/87 54/46/91 46/51/92
f 43/43/87 38/42/82 40/45/81 54/46/91
f 54/46/91 40/45/81 36/49/76 49/50/75
f 46/51/92 54/46/91 49/50/75 34/52/74
f 37/40/84 44/38/86 55/35/93 42/37/80
f 44/38/86 31/39/90 48/36/94 55/35/93
f 55/35/93 48/36/94 33/29/70 39/32/73
f 42/37/80 55/35/93 39/32/73 35/34/78
s off
f 31/125/95 45/126/96 57/127/97 56/128/98
f 48/53/99 31/54/100 56/55/101 59/56/102
f 45/126/103 32/129/104 60/130/105 57/127/106
f 32/59/107 46/60/108 61/61/109 60/62/110
f 46/60/111 34/63/112 62/64/113 61/61/114
f 34/131/115 47/132/116 63/133/117 62/134/118
f 47/132/119 33/135/120 64/136/121 63/133/122
f 33/57/123 48/53/124 59/56/125 64/58/126
s 5
f 90/10/127 93/11/128 92/12/129 91/13/130
f 91/13/130 92/12/129 95/16/131 94/17/132
f 92/12/129 97/15/133 96/18/134 95/16/131
f 93/11/128 98/14/135 97/15/133 92/12/129
s 6
f 67/65/136 73/66/137 85/67/138 81/68/139
f 81/137/139 85/138/138 83/139/140 68/140/141
f 85/138/138 84/141/142 70/142/143 83/139/140
f 73/66/137 69/71/144 84/72/142 85/67/138
f 69/200/144 76/201/145 86/202/146 84/203/142
f 84/203/142 86/202/146 74/206/147 70/207/143
f 86/202/146 75/205/148 72/208/149 74/206/147
f 76/201/145 71/204/150 75/205/148 86/202/146
f 71/143/150 78/144/151 87/145/152 75/146/148
f 75/77/148 87/78/152 77/79/153 72/80/149
f 87/78/152 79/81/154 66/82/155 77/79/153
f 78/144/151 65/147/156 79/148/154 87/145/152
f 66/82/155 80/85/157 88/83/158 77/79/153
f 77/79/153 88/83/158 74/84/147 72/80/149
f 88/83/158 83/86/140 70/87/143 74/84/147
f 80/85/157 68/88/141 83/86/140 88/83/158
f 71/76/150 76/73/145 89/69/159 78/74/151
f 78/74/151 89/69/159 82/70/160 65/75/156
f 89/69/159 73/66/137 67/65/136 82/70/160
f 76/73/145 69/71/144 73/66/137 89/69/159
s off
f 65/149/161 90/150/162 91/151/163 79/152/164
f 82/89/165 93/90/166 90/91/167 65/92/168
f 79/152/169 91/151/170 94/153/171 66/154/172
f 66/95/173 94/96/174 95/97/175 80/98/176
f 80/98/177 95/97/178 96/99/179 68/100/180
f 68/155/181 96/156/182 97/157/183 81/158/184
f 81/158/185 97/157/186 98/159/187 67/160/188
f 67/93/189 98/94/190 93/90/191 82/89/192
