# This file uses centimeters as units for non-parametric coordinates.

mtllib MaleLARM.mtl
g default
v 1.668550 -2.533534 0.350928
v 1.680296 -2.523571 0.366331
v 1.690260 -2.535317 0.350928
v 1.229490 -2.015887 0.382032
v 1.250980 -2.017653 0.366331
v 1.239252 -2.027397 0.351238
v 1.217515 -2.026044 0.366331
v 2.225510 -2.081326 0.350928
v 2.215547 -2.069579 0.366331
v 2.227293 -2.059616 0.350928
v 1.800207 -1.531814 0.366331
v 1.798096 -1.553598 0.351083
v 1.786486 -1.563242 0.366331
v 1.788233 -1.541970 0.382032
v 2.225510 -2.081326 -0.350928
v 2.227293 -2.059616 -0.350928
v 2.215547 -2.069579 -0.366331
v 1.788233 -1.541970 -0.382032
v 1.786468 -1.563461 -0.366331
v 1.797995 -1.553480 -0.351238
v 1.800207 -1.531814 -0.366331
v 1.690260 -2.535317 -0.350928
v 1.680296 -2.523571 -0.366331
v 1.668550 -2.533534 -0.350928
v 1.217515 -2.026044 -0.366331
v 1.239352 -2.027516 -0.351083
v 1.250762 -2.017635 -0.366331
v 1.229490 -2.015887 -0.382032
v -0.287678 -0.244004 0.361819
v -0.271066 -0.229914 0.355439
v -0.275931 -0.234041 0.377222
v 0.275931 0.234041 0.377222
v 0.271066 0.229914 0.355439
v 0.287678 0.244004 0.361819
v 0.287678 0.244004 -0.361819
v 0.271066 0.229914 -0.355439
v 0.275931 0.234041 -0.377222
v -0.275931 -0.234041 -0.377222
v -0.271066 -0.229914 -0.355439
v -0.287678 -0.244004 -0.361819
v 1.195356 -2.025048 0.383195
v 1.206830 -2.015723 0.398287
v 1.229049 -2.016261 0.382598
v 1.217084 -2.026410 0.366908
v 1.800638 -1.531448 0.366908
v 1.788235 -1.541968 0.382311
v 1.791331 -1.519551 0.398287
v 1.802841 -1.509789 0.383195
v -0.291777 -0.247482 0.366908
v -0.279374 -0.236961 0.382311
v -0.282470 -0.259377 0.398287
v -0.293980 -0.269140 0.383195
v 0.313505 0.246120 0.383195
v 0.302031 0.236795 0.398287
v 0.279812 0.237332 0.382598
v 0.291777 0.247481 0.366908
v 1.788673 -1.541596 -0.382598
v 1.800420 -1.531633 -0.366334
v 1.802841 -1.509789 -0.383195
v 1.791331 -1.519551 -0.398287
v 0.301995 0.236357 -0.398287
v 0.313305 0.246356 -0.383505
v 0.291777 0.247481 -0.366908
v 0.279812 0.237332 -0.382598
v 1.217084 -2.026410 -0.366908
v 1.229487 -2.015890 -0.382311
v 1.206866 -2.015286 -0.398287
v 1.195356 -2.025048 -0.383195
v -0.293980 -0.269140 -0.383195
v -0.282907 -0.259341 -0.398287
v -0.279812 -0.237332 -0.382598
v -0.291777 -0.247482 -0.366908
vt 0.703769 0.019900
vt 0.703769 0.022220
vt 0.703841 0.019850
vt 0.703841 0.022271
vt 0.703807 0.019798
vt 0.703736 0.019850
vt 0.703807 0.022323
vt 0.703737 0.022271
vt 0.712297 0.016475
vt 0.714720 0.016475
vt 0.714775 0.016547
vt 0.712243 0.016547
vt 0.714773 0.016442
vt 0.714825 0.016515
vt 0.714776 0.022349
vt 0.712243 0.022349
vt 0.712193 0.016515
vt 0.712246 0.016441
vt 0.711998 0.022314
vt 0.709573 0.022314
vt 0.709519 0.022242
vt 0.712052 0.022242
vt 0.709521 0.022347
vt 0.709469 0.022275
vt 0.712052 0.016441
vt 0.709519 0.016441
vt 0.712101 0.022275
vt 0.712049 0.022349
vt 0.700743 0.019020
vt 0.700741 0.019022
vt 0.700702 0.018970
vt 0.700703 0.018968
vt 0.702589 0.019020
vt 0.702589 0.019021
vt 0.700630 0.019023
vt 0.700668 0.019073
vt 0.700702 0.016545
vt 0.700703 0.016547
vt 0.700775 0.018918
vt 0.700814 0.018968
vt 0.702628 0.018968
vt 0.702630 0.018970
vt 0.700630 0.016491
vt 0.700743 0.016494
vt 0.700743 0.016495
vt 0.700775 0.016597
vt 0.702628 0.016547
vt 0.702629 0.016547
vt 0.700668 0.016441
vt 0.702590 0.016493
vt 0.702589 0.016495
vt 0.700813 0.016547
vt 0.699936 0.019254
vt 0.699923 0.019237
vt 0.699964 0.019186
vt 0.699975 0.019203
vt 0.699936 0.021645
vt 0.699923 0.021661
vt 0.701811 0.019185
vt 0.701799 0.019203
vt 0.699991 0.019275
vt 0.699975 0.021695
vt 0.699962 0.021713
vt 0.699991 0.021623
vt 0.701851 0.019237
vt 0.701837 0.019254
vt 0.701782 0.019275
vt 0.701799 0.021695
vt 0.701811 0.021713
vt 0.701782 0.021623
vt 0.701923 0.019183
vt 0.701885 0.019133
vt 0.701851 0.021661
vt 0.701837 0.021645
vt 0.701922 0.021716
vt 0.701885 0.021765
vt 0.707806 0.019667
vt 0.709307 0.017898
vt 0.709378 0.017892
vt 0.707812 0.019738
vt 0.704293 0.019668
vt 0.702792 0.017898
vt 0.704287 0.019738
vt 0.702721 0.017892
vt 0.711912 0.008907
vt 0.706991 0.014711
vt 0.706953 0.014678
vt 0.711874 0.008877
vt 0.713843 0.010547
vt 0.708923 0.016350
vt 0.713881 0.010579
vt 0.708961 0.016381
vt 0.708849 0.016352
vt 0.707002 0.014785
vt 0.711986 0.008906
vt 0.713833 0.010473
vt 0.706804 0.014784
vt 0.704957 0.016351
vt 0.704882 0.016349
vt 0.706813 0.014711
vt 0.699959 0.010548
vt 0.701892 0.008910
vt 0.704844 0.016382
vt 0.699923 0.010580
vt 0.699970 0.010475
vt 0.701819 0.008906
vt 0.701929 0.008877
vt 0.706851 0.014679
vt 0.500826 0.426707
vt 0.500826 0.432471
vt 0.500648 0.432471
vt 0.500648 0.426707
vt 0.500729 0.432597
vt 0.496491 0.432473
vt 0.496492 0.426705
vt 0.500729 0.426580
vt 0.505083 0.426831
vt 0.505083 0.432595
vt 0.500927 0.432597
vt 0.500928 0.426829
vt 0.496390 0.426708
vt 0.496390 0.432472
vt 0.496212 0.432472
vt 0.496212 0.426708
vt 0.496294 0.432598
vt 0.491816 0.432472
vt 0.491816 0.426708
vt 0.496294 0.426581
vt 0.508088 0.436285
vt 0.503933 0.432759
vt 0.504013 0.432663
vt 0.508170 0.436188
vt 0.504359 0.440681
vt 0.500201 0.437157
vt 0.508184 0.436367
vt 0.504456 0.440763
vt 0.504277 0.440777
vt 0.500122 0.437252
vt 0.495679 0.440763
vt 0.491950 0.436367
vt 0.492047 0.436285
vt 0.495775 0.440681
vt 0.496202 0.432757
vt 0.499932 0.437157
vt 0.491965 0.436189
vt 0.496121 0.432664
vt 0.500014 0.437252
vt 0.495857 0.440777
vn -0.081870 -0.996643 0.000000
vn -0.081870 -0.996643 0.000000
vn -0.081870 -0.996643 0.000000
vn -0.081870 -0.996643 0.000000
vn -0.537725 -0.456416 0.708898
vn -0.537725 -0.456416 0.708898
vn -0.537725 -0.456416 0.708898
vn -0.537725 -0.456416 0.708898
vn 0.457390 -0.539257 0.707104
vn 0.457390 -0.539257 0.707104
vn 0.457390 -0.539257 0.707104
vn 0.457390 -0.539257 0.707104
vn 0.646854 -0.762614 -0.000189
vn 0.646858 -0.762611 -0.000183
vn 0.646974 -0.762512 -0.000008
vn 0.646977 -0.762509 -0.000003
vn 0.460445 -0.559099 0.689491
vn 0.476680 -0.545383 0.689444
vn 0.489601 -0.541831 0.683162
vn 0.454679 -0.571599 0.683038
vn -0.048858 -0.998543 0.022900
vn -0.048690 -0.998549 -0.022988
vn -0.057365 -0.998298 -0.010505
vn -0.057303 -0.998299 0.010749
vn 0.996643 -0.081872 0.000000
vn 0.996643 -0.081872 0.000000
vn 0.996643 -0.081872 0.000000
vn 0.996643 -0.081872 0.000000
vn 0.540780 0.458357 0.705313
vn 0.540780 0.458357 0.705312
vn 0.540780 0.458357 0.705313
vn 0.540780 0.458357 0.705313
vn 0.647015 -0.762477 0.000000
vn 0.647008 -0.762483 0.000000
vn 0.646852 -0.762615 -0.000189
vn 0.646852 -0.762615 -0.000183
vn 0.994276 -0.106321 0.010505
vn 0.994267 -0.106383 -0.010749
vn 0.993130 -0.114755 -0.022900
vn 0.993109 -0.114921 0.022988
vn 0.457390 -0.539256 -0.707105
vn 0.457390 -0.539256 -0.707105
vn 0.457390 -0.539256 -0.707105
vn 0.457390 -0.539256 -0.707105
vn 0.538042 0.456035 -0.708903
vn 0.538042 0.456035 -0.708903
vn 0.538042 0.456035 -0.708903
vn 0.538042 0.456035 -0.708903
vn 0.646853 -0.762615 0.000000
vn 0.646854 -0.762614 0.000000
vn 0.647016 -0.762477 0.000000
vn 0.647011 -0.762480 0.000000
vn 0.476469 -0.545510 -0.689490
vn 0.460287 -0.559289 -0.689443
vn 0.454674 -0.571457 -0.683161
vn 0.489742 -0.541861 -0.683037
vn -0.540460 -0.458734 -0.705313
vn -0.540459 -0.458734 -0.705313
vn -0.540459 -0.458734 -0.705313
vn -0.540459 -0.458734 -0.705313
vn 0.646977 -0.762509 0.000000
vn 0.646973 -0.762513 0.000000
vn 0.646852 -0.762616 0.000000
vn 0.646852 -0.762616 0.000000
vn -0.646850 0.762617 -0.000000
vn -0.646856 0.762612 -0.000000
vn -0.646845 0.762622 -0.000011
vn -0.646845 0.762622 -0.000003
vn -0.646845 0.762622 0.000000
vn -0.646845 0.762622 -0.000000
vn -0.646850 0.762617 -0.000000
vn -0.646845 0.762622 -0.000003
vn -0.646845 0.762622 -0.000000
vn -0.646844 0.762623 -0.000009
vn -0.646803 0.762657 0.000001
vn -0.646832 0.762632 0.000000
vn -0.646832 0.762632 -0.000000
vn -0.646845 0.762622 0.000000
vn -0.646803 0.762657 -0.000001
vn -0.646843 0.762623 -0.000001
vn -0.646844 0.762622 -0.000000
vn -0.646844 0.762622 -0.000000
vn -0.646844 0.762622 -0.000000
vn -0.646856 0.762612 -0.000000
vn -0.045305 -0.998723 0.022341
vn -0.044537 -0.998732 -0.023467
vn -0.054794 -0.998447 -0.010101
vn -0.055232 -0.998429 0.009476
vn -0.542065 -0.459709 0.703444
vn -0.542065 -0.459709 0.703443
vn -0.542065 -0.459709 0.703444
vn -0.542065 -0.459709 0.703443
vn 0.466516 -0.564552 0.680914
vn 0.481022 -0.552077 0.681049
vn 0.495890 -0.548363 0.673343
vn 0.460394 -0.578716 0.673146
vn 0.993514 -0.113278 0.009927
vn 0.993572 -0.112803 -0.009541
vn 0.992125 -0.123082 -0.023222
vn 0.992102 -0.123263 0.023243
vn 0.542061 0.459706 0.703449
vn 0.542061 0.459705 0.703449
vn 0.542061 0.459706 0.703449
vn 0.542061 0.459706 0.703449
vn -0.994004 0.108879 0.010101
vn -0.994058 0.108443 -0.009476
vn -0.992728 0.118285 -0.022342
vn -0.992612 0.119044 0.023468
vn -0.495887 0.548360 0.673348
vn -0.460392 0.578713 0.673150
vn -0.466514 0.564548 0.680919
vn -0.481020 0.552074 0.681054
vn 0.040318 0.998932 0.022587
vn 0.039468 0.998946 -0.023458
vn 0.049998 0.998703 -0.009574
vn 0.050140 0.998695 0.009665
vn 0.479140 -0.549554 -0.684409
vn 0.464082 -0.561899 -0.684761
vn 0.458114 -0.576012 -0.677009
vn 0.493630 -0.546052 -0.676873
vn 0.536494 0.454983 -0.710749
vn 0.536494 0.454983 -0.710749
vn 0.536494 0.454983 -0.710749
vn 0.536494 0.454983 -0.710749
vn -0.458669 0.575685 -0.676912
vn -0.494147 0.546329 -0.676272
vn -0.479033 0.549974 -0.684146
vn -0.464297 0.562344 -0.684249
vn -0.542002 -0.459782 -0.703445
vn -0.542002 -0.459782 -0.703445
vn -0.542002 -0.459781 -0.703445
vn -0.542002 -0.459781 -0.703445
vn 0.000000 0.000000 1.000000
vn 0.000000 0.000000 1.000000
vn 0.000000 0.000000 1.000000
vn 0.000000 0.000000 1.000000
vn 0.762621 0.646845 -0.000000
vn 0.762621 0.646845 -0.000000
vn 0.762621 0.646845 -0.000000
vn 0.762621 0.646845 -0.000000
vn 0.000000 0.000000 -1.000000
vn 0.000000 0.000000 -1.000000
vn 0.000000 0.000000 -1.000000
vn 0.000000 0.000000 -1.000000
vn -0.762622 -0.646845 0.000000
vn -0.762622 -0.646845 0.000000
vn -0.762622 -0.646845 0.000000
vn -0.762622 -0.646845 0.000000
vn 0.646845 -0.762622 0.000000
vn 0.646845 -0.762622 0.000000
vn 0.646845 -0.762622 0.000000
vn 0.646845 -0.762622 0.000000
vn -0.000000 0.000000 1.000000
vn -0.000000 0.000000 1.000000
vn -0.000000 0.000000 1.000000
vn -0.000000 0.000000 1.000000
vn 0.762622 0.646845 -0.000000
vn 0.762622 0.646845 -0.000000
vn 0.762622 0.646845 -0.000000
vn 0.762622 0.646845 -0.000000
vn 0.000000 0.000000 -1.000000
vn 0.000000 0.000000 -1.000000
vn 0.000000 0.000000 -1.000000
vn 0.000000 0.000000 -1.000000
vn -0.762622 -0.646845 0.000000
vn -0.762622 -0.646845 0.000000
vn -0.762622 -0.646845 0.000000
vn -0.762622 -0.646845 0.000000
vn -0.066846 -0.813763 0.577339
vn -0.066846 -0.813763 0.577339
vn -0.066846 -0.813763 0.577339
vn 0.813753 -0.066850 0.577353
vn 0.813753 -0.066850 0.577353
vn 0.813753 -0.066850 0.577353
vn 0.813753 -0.066850 -0.577353
vn 0.813753 -0.066850 -0.577353
vn 0.813753 -0.066850 -0.577353
vn -0.066848 -0.813763 -0.577339
vn -0.066848 -0.813763 -0.577339
vn -0.066848 -0.813763 -0.577339
s off
g MaleLARM
usemtl lambert20SG
f 1/121/1 24/122/2 22/123/3 3/124/4
f 2/129/5 5/130/6 6/131/7 1/132/8
f 3/135/9 8/136/10 9/133/11 2/129/12
s 1
f 4/29/13 43/30/14 44/31/15 7/32/16
s 2
f 5/77/17 13/78/18 14/79/19 4/80/20
f 7/32/21 25/38/22 26/46/23 6/39/24
s off
f 8/109/25 15/110/26 16/111/27 10/112/28
f 10/137/29 12/138/30 13/134/31 9/133/32
s 1
f 11/41/33 45/42/34 46/34/35 14/33/36
s 2
f 12/2/37 20/1/38 21/3/39 11/4/40
s off
f 15/139/41 22/140/42 23/141/43 17/142/44
f 17/142/45 19/144/46 20/147/47 16/148/48
s 1
f 18/51/49 57/50/50 58/48/51 21/47/52
s 2
f 19/82/53 27/81/54 28/83/55 18/84/56
s off
f 24/145/57 26/146/58 27/143/59 23/141/60
s 1
f 25/38/61 65/37/62 66/44/63 28/45/64
s 7
f 29/53/65 49/54/66 50/55/67 31/56/68
f 30/61/69 39/64/70 40/57/71 29/53/65
f 31/56/68 32/60/72 33/67/73 30/61/69
f 32/60/72 55/59/74 56/65/75 34/66/76
f 34/66/76 35/74/77 36/70/78 33/67/73
f 35/74/77 63/73/79 64/69/80 37/68/81
f 37/68/81 38/62/82 39/64/70 36/70/78
f 38/62/82 71/63/83 72/58/84 40/57/71
s 9
f 41/35/85 68/43/86 65/37/87 44/31/88
s off
f 42/85/89 51/86/90 52/87/91 41/88/92
s 9
f 43/95/93 46/96/94 47/89/95 42/85/96
f 45/9/97 58/10/98 59/11/99 48/12/100
s off
f 48/91/101 53/92/102 54/90/103 47/89/104
s 12
f 49/19/105 72/20/106 69/21/107 52/22/108
f 51/86/109 54/90/110 55/93/111 50/94/112
f 53/71/113 62/75/114 63/73/115 56/65/116
s 9
f 57/97/117 66/98/118 67/99/119 60/100/120
s off
f 60/100/121 61/102/122 62/107/123 59/108/124
s 12
f 61/102/125 70/101/126 71/105/127 64/106/128
s off
f 68/103/129 69/104/130 70/101/131 67/99/132
f 2/129/133 9/133/134 13/134/135 5/130/136
f 10/112/137 16/111/138 20/114/139 12/115/140
f 17/142/141 23/141/142 27/143/143 19/144/144
f 24/117/145 1/118/146 6/119/147 26/120/148
s 7
f 30/61/69 33/67/73 36/70/78 39/64/70
s off
f 22/123/149 15/126/150 8/127/151 3/124/152
f 47/89/153 54/90/154 51/86/155 42/85/156
f 59/11/157 62/15/158 53/16/159 48/12/160
f 67/99/161 70/101/162 61/102/163 60/100/164
f 41/25/165 52/22/166 69/21/167 68/26/168
s 1
f 14/33/36 46/34/35 43/30/14 4/29/13
s 7
f 31/56/68 50/55/67 55/59/74 32/60/72
s 1
f 21/47/52 58/48/51 45/42/34 11/41/33
s 7
f 34/66/76 56/65/75 63/73/79 35/74/77
s 1
f 28/45/64 66/44/63 57/50/50 18/51/49
s 7
f 37/68/81 64/69/80 71/63/83 38/62/82
s 1
f 7/32/16 44/31/15 65/37/62 25/38/61
s 7
f 40/57/71 72/58/84 49/54/66 29/53/65
s off
f 1/121/169 3/124/170 2/128/171
s 2
f 4/29/20 7/32/21 6/39/24 5/40/17
s off
f 8/109/172 10/112/173 9/116/174
s 2
f 11/4/40 14/7/19 13/8/18 12/2/37
s off
f 15/110/175 17/113/176 16/111/177
s 2
f 18/5/56 21/3/39 20/1/38 19/6/53
s off
f 22/123/178 24/122/179 23/125/180
s 2
f 25/38/22 28/45/55 27/52/54 26/46/23
s 7
f 29/53/65 31/56/68 30/61/69
f 32/60/72 34/66/76 33/67/73
f 35/74/77 37/68/81 36/70/78
f 38/62/82 40/57/71 39/64/70
s 9
f 41/35/85 44/31/88 43/30/93 42/36/96
f 45/9/97 48/12/100 47/17/95 46/18/94
s 12
f 49/19/105 52/22/108 51/27/109 50/28/112
f 53/71/113 56/65/116 55/59/111 54/72/110
s 9
f 57/13/117 60/14/120 59/11/99 58/10/98
s 12
f 61/76/125 64/69/128 63/73/115 62/75/114
s 9
f 65/37/87 68/43/86 67/49/119 66/44/118
s 12
f 69/21/107 72/20/106 71/23/127 70/24/126
