# This file uses centimeters as units for non-parametric coordinates.

mtllib WolfTail.mtl
g default
v -0.441780 -0.338777 -0.128252
v -0.315035 -0.408437 -0.099070
v -0.321551 -0.311049 -0.000000
v -0.459578 -0.186435 -0.050044
v 0.314424 -0.309285 -0.000000
v 0.323598 -0.408437 -0.097203
v 0.449330 -0.330568 -0.040697
v 0.449268 0.508841 -0.048371
v 0.317665 0.456999 -0.004334
v 0.324551 0.310380 -0.000000
v 0.453130 0.341630 -0.043609
v -0.451180 0.341630 -0.043609
v -0.318625 0.306404 -0.000000
v -0.319288 0.453589 -0.004137
v -0.447318 0.508841 -0.048371
v -0.456540 -0.239765 -0.942270
v -0.319339 -0.359188 -0.869479
v -0.317764 -0.408437 -0.736510
v -0.436641 -0.346312 -0.760497
v -0.450400 0.517390 -1.664168
v -0.315547 0.457069 -1.713620
v -0.314122 0.329367 -1.658962
v -0.445808 0.370790 -1.619992
v 0.447758 0.370790 -1.619992
v 0.317864 0.330545 -1.660312
v 0.312373 0.461954 -1.713247
v 0.452350 0.517390 -1.664168
v 0.438591 -0.346312 -0.760497
v 0.315196 -0.408437 -0.731992
v 0.319715 -0.358154 -0.870665
v 0.458490 -0.239765 -0.942270
v -0.249071 2.951692 -0.392906
v -0.328183 2.831187 -0.250057
v -0.356119 2.676137 -0.160344
v -0.206853 2.808469 -0.140272
v -0.173546 2.931300 -0.213567
v 0.175496 2.931300 -0.213567
v 0.207976 2.807606 -0.140222
v 0.358958 2.673662 -0.160528
v 0.330074 2.831255 -0.249925
v 0.251022 2.951692 -0.392906
v 0.251148 2.951430 -1.295616
v 0.330055 2.831276 -1.426763
v 0.359358 2.671713 -1.520942
v 0.208500 2.808254 -1.533714
v 0.172114 2.931087 -1.464754
v -0.170164 2.931087 -1.464754
v -0.206110 2.807795 -1.533749
v -0.358460 2.668769 -1.520848
v -0.328035 2.831358 -1.426914
v -0.249198 2.951430 -1.295616
v -0.815435 0.774868 -0.402657
v -0.815435 0.631542 -0.402593
v -0.751958 0.570956 -0.274071
v -0.752116 0.738509 -0.274191
v -0.773192 0.147094 -0.371997
v -0.749831 0.239658 -0.272441
v -0.815435 0.283993 -0.397675
v -0.756627 0.746085 -1.429275
v -0.764461 0.598928 -1.383101
v -0.815435 0.627929 -1.248741
v -0.815435 0.774282 -1.303083
v -0.815435 0.283993 -1.044570
v -0.756106 0.201563 -1.139759
v -0.773192 0.147094 -0.979857
v -0.815435 2.190763 -0.409302
v -0.738745 2.235475 -0.287834
v -0.764728 2.326918 -0.396619
v -0.815435 2.191092 -1.310181
v -0.764635 2.327027 -1.320040
v -0.736102 2.235300 -1.429600
v 0.754066 0.738509 -0.274191
v 0.753908 0.570956 -0.274071
v 0.817386 0.631542 -0.402593
v 0.817386 0.774868 -0.402657
v 0.817386 0.279413 -0.411319
v 0.766077 0.133804 -0.283394
v 0.817386 0.288394 -1.042066
v 0.775142 0.147094 -0.979857
v 0.758056 0.201563 -1.139759
v 0.817386 0.774282 -1.303083
v 0.817386 0.628410 -1.249587
v 0.766411 0.598928 -1.383101
v 0.758578 0.746085 -1.429275
v 0.817386 2.190637 -1.309658
v 0.738052 2.235300 -1.429600
v 0.766585 2.327027 -1.320040
v 0.817386 2.191106 -0.408919
v 0.766678 2.326918 -0.396619
v 0.740695 2.235475 -0.287834
v -0.120936 3.216945 -0.786991
v -0.014403 3.250804 -0.696939
v 0.000975 3.292223 -0.835246
v 0.015630 3.250377 -0.696293
v 0.122887 3.216945 -0.786991
v 0.000602 3.292223 -0.885631
v 0.122975 3.216763 -0.932753
v 0.016287 3.247699 -1.024061
v 0.000967 3.292223 -0.885971
v -0.014337 3.247699 -1.024061
v -0.121024 3.216763 -0.932753
vt 0.638124 0.866917
vt 0.638686 0.868011
vt 0.637088 0.871073
vt 0.636373 0.870408
vt 0.667220 0.915029
vt 0.666310 0.914819
vt 0.666347 0.910276
vt 0.667201 0.910449
vt 0.590517 0.867562
vt 0.590564 0.866863
vt 0.595153 0.866863
vt 0.595087 0.867575
vt 0.589526 0.868458
vt 0.590538 0.871999
vt 0.589586 0.872252
vt 0.596056 0.867422
vt 0.596083 0.872252
vt 0.595160 0.872027
vt 0.672712 0.915448
vt 0.671809 0.915042
vt 0.671749 0.910481
vt 0.672635 0.910276
vt 0.596056 0.873453
vt 0.598244 0.873900
vt 0.598246 0.875103
vt 0.595110 0.873081
vt 0.595407 0.889008
vt 0.594322 0.889970
vt 0.590534 0.873056
vt 0.589614 0.873453
vt 0.587424 0.875103
vt 0.587425 0.873900
vt 0.591341 0.889976
vt 0.590269 0.889025
vt 0.632275 0.867628
vt 0.633582 0.866863
vt 0.632005 0.870408
vt 0.630857 0.870799
vt 0.667189 0.909493
vt 0.666204 0.908970
vt 0.666281 0.904101
vt 0.667227 0.903821
vt 0.671781 0.909485
vt 0.627078 0.910208
vt 0.627111 0.911261
vt 0.624822 0.909622
vt 0.624878 0.908565
vt 0.628047 0.910641
vt 0.627739 0.894750
vt 0.628834 0.893751
vt 0.628058 0.911559
vt 0.632559 0.910606
vt 0.632598 0.911550
vt 0.633532 0.911261
vt 0.633565 0.910208
vt 0.635765 0.908565
vt 0.635821 0.909622
vt 0.671768 0.903811
vt 0.672701 0.904101
vt 0.672778 0.908970
vt 0.631813 0.893748
vt 0.632897 0.894729
vt 0.620614 0.866863
vt 0.621920 0.867628
vt 0.623339 0.870799
vt 0.622190 0.870408
vt 0.060151 0.072319
vt 0.060749 0.070898
vt 0.062009 0.074727
vt 0.061165 0.075440
vt 0.064271 0.081470
vt 0.065225 0.082601
vt 0.065223 0.089751
vt 0.064272 0.090791
vt 0.637894 0.888579
vt 0.637249 0.889693
vt 0.636196 0.886070
vt 0.636978 0.885413
vt 0.047096 0.099200
vt 0.046123 0.099464
vt 0.046116 0.096179
vt 0.047096 0.096436
vt 0.063513 0.070898
vt 0.064111 0.072319
vt 0.063097 0.075440
vt 0.062247 0.074721
vt 0.616946 0.889693
vt 0.616304 0.888561
vt 0.617218 0.885413
vt 0.618000 0.886070
vt 0.061993 0.089658
vt 0.061039 0.090791
vt 0.061039 0.081470
vt 0.061990 0.082508
vt 0.064112 0.079468
vt 0.063487 0.080808
vt 0.062252 0.077317
vt 0.063097 0.076594
vt 0.626078 0.888547
vt 0.625401 0.889694
vt 0.624635 0.886071
vt 0.625422 0.885412
vt 0.044962 0.096467
vt 0.045935 0.096179
vt 0.045939 0.099462
vt 0.044962 0.099178
vt 0.060776 0.080808
vt 0.060150 0.079468
vt 0.061165 0.076594
vt 0.062010 0.077317
vt 0.628793 0.889694
vt 0.628118 0.888526
vt 0.628774 0.885412
vt 0.629561 0.886071
vt 0.636153 0.874918
vt 0.637076 0.874657
vt 0.636105 0.885091
vt 0.636153 0.873889
vt 0.629683 0.874914
vt 0.630073 0.873863
vt 0.637076 0.873453
vt 0.636188 0.871391
vt 0.631540 0.871391
vt 0.628776 0.874712
vt 0.629632 0.885094
vt 0.629108 0.873654
vt 0.617120 0.874657
vt 0.618043 0.874918
vt 0.618088 0.885094
vt 0.618043 0.873889
vt 0.617119 0.873453
vt 0.617186 0.870312
vt 0.618106 0.871359
vt 0.624128 0.873866
vt 0.624513 0.874914
vt 0.622637 0.871423
vt 0.625088 0.873654
vt 0.625419 0.874712
vt 0.624560 0.885091
vt 0.062131 0.075822
vt 0.062131 0.076224
vt 0.062128 0.076221
vt 0.042094 0.096179
vt 0.042218 0.097275
vt 0.041975 0.097275
vt 0.042097 0.096181
vt 0.631090 0.934237
vt 0.631087 0.933875
vt 0.631090 0.933873
vt 0.587440 0.871519
vt 0.627406 0.872015
vt 0.587520 0.885859
vt 0.625026 0.897865
vt 0.598332 0.870759
vt 0.615443 0.866976
vt 0.626790 0.872015
vt 0.635617 0.897865
vt 0.598150 0.885859
vt 0.064092 0.085382
vt 0.064093 0.086537
vt 0.067326 0.085722
vt 0.067324 0.086877
vt 0.589653 0.867363
vt 0.059524 0.071187
vt 0.059303 0.070477
vt 0.060485 0.070318
vt 0.063770 0.070317
vt 0.064966 0.070478
vt 0.064738 0.071186
vt 0.064737 0.080507
vt 0.064970 0.081253
vt 0.063775 0.081354
vt 0.060491 0.081354
vt 0.059284 0.081252
vt 0.059525 0.080508
vt 0.040829 0.096179
vt 0.041798 0.096552
vt 0.040953 0.097275
vn -0.741061 -0.397521 0.541115
vn -0.616946 -0.148032 0.772958
vn -0.706073 -0.071360 0.704535
vn -0.861420 -0.502635 0.072896
vn -0.076779 -0.997048 0.000702
vn -0.750402 -0.660980 0.001157
vn -0.769704 -0.637171 -0.039622
vn -0.092175 -0.993623 -0.064934
vn -0.000058 -0.706628 0.707585
vn -0.000058 -0.706628 0.707585
vn 0.006788 -0.705874 0.708305
vn 0.007485 -0.705796 0.708376
vn -0.034360 -0.000216 0.999409
vn -0.061369 0.005085 0.998102
vn -0.534693 0.003909 0.845037
vn 0.059858 -0.000224 0.998207
vn 0.477232 -0.000525 0.878777
vn 0.542468 0.003736 0.840068
vn 0.062244 0.005426 0.998046
vn 0.774901 -0.632083 0.000619
vn 0.115392 -0.993320 0.000758
vn 0.100118 -0.992955 -0.063376
vn 0.772509 -0.633935 -0.036832
vn 0.385651 0.050015 0.921288
vn 0.702208 0.006056 0.711946
vn 0.553267 0.037288 0.832169
vn 0.043964 0.056878 0.997413
vn 0.333473 0.056068 0.941091
vn 0.027133 0.073131 0.996953
vn -0.043729 0.056753 0.997430
vn -0.386989 0.049966 0.920730
vn -0.553165 0.037336 0.832235
vn -0.700310 0.006339 0.713811
vn -0.027090 0.073169 0.996952
vn -0.336064 0.056124 0.940166
vn -0.535996 -0.658813 -0.527896
vn -0.848053 -0.525527 -0.068028
vn -0.668614 -0.517080 -0.534400
vn -0.046780 -0.783325 -0.619850
vn -0.540602 -0.549547 -0.636983
vn -0.061252 -0.715174 -0.696257
vn 0.047292 -0.783217 -0.619947
vn -0.378368 0.034396 -0.925016
vn -0.702878 -0.412576 -0.579435
vn -0.542729 0.028541 -0.839423
vn -0.044380 0.045015 -0.998000
vn -0.315331 0.068331 -0.946519
vn -0.026421 0.089746 -0.995614
vn 0.044494 0.045259 -0.997984
vn 0.061830 -0.715150 -0.696231
vn 0.539946 -0.549146 -0.637884
vn 0.377168 0.034052 -0.925518
vn 0.542520 0.028656 -0.839554
vn 0.703676 -0.412357 -0.578620
vn 0.536364 -0.659171 -0.527075
vn 0.026479 0.089691 -0.995618
vn 0.312346 0.068203 -0.947517
vn 0.669318 -0.516840 -0.533751
vn 0.848352 -0.525660 -0.063090
vn -0.551604 0.745078 0.374955
vn -0.554582 0.690642 0.464168
vn -0.237171 0.847766 0.474388
vn -0.542420 0.791391 0.281924
vn -0.765559 0.643366 -0.000003
vn -0.851376 0.524556 -0.000025
vn -0.852299 0.523056 -0.000025
vn -0.765635 0.643275 -0.000003
vn -0.682054 0.477704 0.553717
vn -0.618733 0.554037 0.556967
vn -0.791298 0.608619 0.058565
vn -0.839919 0.155998 0.519808
vn 0.000219 0.719946 0.694030
vn 0.000218 0.720141 0.693828
vn 0.553250 0.689502 0.467441
vn 0.550038 0.745441 0.376531
vn 0.540761 0.792279 0.282616
vn 0.233029 0.847979 0.476057
vn 0.616979 0.552436 0.560491
vn 0.681050 0.476284 0.556169
vn 0.839249 0.155858 0.520932
vn 0.791337 0.608546 0.058797
vn 0.851369 0.524567 -0.000016
vn 0.765555 0.643371 -0.000002
vn 0.765640 0.643269 -0.000002
vn 0.852300 0.523053 -0.000016
vn 0.546115 0.734155 -0.403454
vn 0.545585 0.685121 -0.482645
vn 0.236369 0.830940 -0.503656
vn 0.539098 0.786162 -0.302195
vn 0.657454 0.489018 -0.573250
vn 0.596967 0.559008 -0.575448
vn 0.790424 0.609364 -0.062489
vn 0.834043 0.158516 -0.528436
vn -0.000112 0.690171 -0.723647
vn -0.000112 0.690327 -0.723497
vn -0.545443 0.683540 -0.485040
vn -0.546118 0.733624 -0.404415
vn -0.539292 0.786058 -0.302121
vn -0.236292 0.830908 -0.503744
vn -0.595580 0.557411 -0.578427
vn -0.656321 0.487457 -0.575872
vn -0.833150 0.158374 -0.529886
vn -0.790427 0.609331 -0.062776
vn -0.996985 0.001097 0.077591
vn -0.996622 0.031973 0.075647
vn -0.997945 0.000115 0.064075
vn -0.997126 -0.000808 -0.075759
vn -0.996166 -0.042126 -0.076678
vn -0.994810 -0.074417 0.069392
vn -0.995819 -0.076264 -0.050275
vn -0.996656 0.031545 -0.075381
vn 0.996983 0.001087 0.077610
vn 0.996620 0.031968 0.075671
vn 0.997694 0.000438 0.067868
vn 0.637603 0.000368 0.770365
vn 0.992932 -0.092681 0.074142
vn 0.996090 -0.042865 -0.077246
vn 0.997128 -0.000776 -0.075737
vn 0.840656 -0.541570 0.000122
vn 0.995461 -0.081616 -0.048955
vn 0.996656 0.031564 -0.075364
vn 0.000936 0.997875 0.065155
vn -0.455606 0.885483 -0.091343
vn 0.488009 0.869795 -0.072830
vn 0.000000 -1.000000 -0.000004
vn 0.000000 -1.000000 -0.000004
vn 0.000000 -1.000000 -0.000004
vn -0.467242 0.043606 0.883054
vn -0.441822 0.048833 -0.895772
vn 0.441556 0.048895 -0.895900
vn 0.467399 0.043569 0.882972
vn 0.900443 0.434974 -0.000000
vn 0.900443 0.434974 -0.000000
vn -0.900443 0.434974 -0.000000
vn -0.900443 0.434974 -0.000000
vn -0.568504 -0.512299 0.643702
vn -0.568504 -0.512299 0.643702
vn 0.106657 -0.691012 0.714932
vn -0.550986 0.623345 0.554847
vn 0.549649 0.620444 0.559406
vn 0.538566 0.617527 -0.573243
vn -0.538074 0.614845 -0.576578
s 1
g WolfTail
usemtl lambert21SG
f 1/1/1 4/2/2 57/3/3 56/4/4
f 2/5/5 1/6/6 19/7/7 18/8/8
s 3
f 3/9/9 2/10/10 6/11/11 5/12/12
s 1
f 4/13/2 3/9/13 13/14/14 12/15/15
f 5/12/16 7/16/17 11/17/18 10/18/19
f 7/19/20 6/20/21 29/21/22 28/22/23
f 8/23/24 11/17/18 73/24/25 72/25/26
f 9/26/27 8/23/24 39/27/28 38/28/29
f 10/18/19 9/26/27 14/29/30 13/14/14
f 12/15/15 15/30/31 55/31/32 54/32/33
f 15/30/31 14/29/30 35/33/34 34/34/35
f 16/35/36 19/36/7 65/37/37 64/38/38
f 17/39/39 16/40/36 23/41/40 22/42/41
f 18/8/8 17/39/39 30/43/42 29/21/22
f 20/44/43 23/45/40 60/46/44 59/47/45
f 21/48/46 20/44/43 49/49/47 48/50/48
f 22/51/41 21/48/46 26/52/49 25/53/50
f 24/54/51 27/55/52 84/56/53 83/57/54
f 25/58/50 24/59/51 31/60/55 30/43/42
f 27/55/52 26/52/49 45/61/56 44/62/57
f 28/63/23 31/64/55 80/65/58 79/66/59
f 32/67/60 36/68/61 92/69/62 91/70/63
f 33/71/64 32/72/65 51/73/66 50/74/67
f 34/75/68 33/76/69 68/77/70 67/78/71
f 36/79/72 35/80/34 38/81/29 37/82/73
f 37/83/74 41/84/75 95/85/76 94/86/77
f 40/87/78 39/88/79 90/89/80 89/90/81
f 41/91/82 40/92/83 43/93/84 42/94/85
f 42/95/86 46/96/87 98/97/88 97/98/89
f 44/99/90 43/100/91 87/101/92 86/102/93
f 46/103/94 45/104/56 48/105/48 47/106/95
f 47/107/96 51/108/97 101/109/98 100/110/99
f 50/111/100 49/112/101 71/113/102 70/114/103
f 52/115/104 55/116/32 67/78/71 66/117/105
f 53/118/106 52/115/104 62/119/107 61/120/108
f 54/121/33 53/118/106 58/122/109 57/3/3
f 56/4/4 58/122/109 63/123/110 65/37/37
f 59/124/45 62/119/107 69/125/111 71/113/102
f 61/120/108 60/126/44 64/38/38 63/123/110
f 66/117/105 68/77/70 70/114/103 69/125/111
f 72/127/26 75/128/112 88/129/113 90/89/80
f 74/130/114 73/131/25 77/132/115 76/133/116
f 75/128/112 74/130/114 82/134/117 81/135/118
f 76/133/116 77/132/119 79/66/59 78/136/120
f 78/136/120 80/65/58 83/137/54 82/134/117
f 81/135/118 84/138/53 86/102/93 85/139/121
f 85/139/121 87/101/92 89/90/81 88/129/113
f 91/70/63 93/140/122 99/141/123 101/109/98
f 93/140/122 92/69/62 94/86/77
f 93/140/122 95/85/76 97/98/89 96/142/124
f 96/143/124 98/144/88 100/145/99 99/146/123
f 17/39/39 22/42/41 25/58/50 30/43/42
f 58/122/109 53/118/106 61/120/108 63/123/110
s off
f 93/147/125 96/148/126 99/149/127
s 1
f 74/130/114 76/133/116 78/136/120 82/134/117
f 6/20/21 2/5/5 18/8/8 29/21/22
f 14/29/30 9/26/27 38/28/29 35/33/34
f 75/128/112 81/135/118 85/139/121 88/129/113
f 26/52/49 21/48/46 48/50/48 45/61/56
f 62/119/107 52/115/104 66/117/105 69/125/111
f 4/13/2 12/15/15 54/32/33 57/150/3
f 23/151/40 16/35/36 64/38/38 60/126/44
f 19/36/7 1/1/6 56/4/4 65/37/37
f 15/30/31 34/34/35 67/152/128 55/31/32
f 33/76/64 50/111/67 70/114/103 68/77/70
f 49/49/47 20/44/43 59/47/45 71/153/129
f 11/17/18 7/16/17 77/154/115 73/24/25
f 7/155/20 28/63/23 79/66/59 77/132/119
f 31/64/55 24/156/51 83/137/54 80/65/58
f 27/55/52 44/62/57 86/157/130 84/56/53
f 43/100/84 40/87/83 89/90/81 87/101/92
f 39/27/28 8/23/24 72/25/26 90/158/131
f 36/68/72 37/83/73 94/86/77 92/69/62
f 41/91/82 42/94/85 97/159/132 95/160/133
f 46/96/94 47/107/95 100/110/99 98/97/88
f 51/73/66 32/72/65 91/161/134 101/162/135
f 13/14/14 3/9/13 5/12/16 10/18/19
f 1/163/1 2/10/136 3/9/137 4/13/2
s 3
f 5/12/12 6/11/11 7/16/138
s 1
f 8/23/24 9/26/27 10/18/19 11/17/18
f 12/15/15 13/14/14 14/29/30 15/30/31
f 16/40/36 17/39/39 18/8/8 19/7/7
f 20/44/43 21/48/46 22/51/41 23/45/40
f 24/54/51 25/53/50 26/52/49 27/55/52
f 28/22/23 29/21/22 30/43/42 31/60/55
f 32/67/60 33/164/69 34/165/68 35/166/139 36/68/61
f 37/83/74 38/167/140 39/168/79 40/169/78 41/84/75
f 42/95/86 43/170/91 44/171/90 45/172/141 46/96/87
f 47/107/96 48/173/142 49/174/101 50/175/100 51/108/97
f 52/115/104 53/118/106 54/121/33 55/116/32
f 56/4/4 57/3/3 58/122/109
f 59/124/45 60/126/44 61/120/108 62/119/107
f 63/123/110 64/38/38 65/37/37
f 66/117/105 67/78/71 68/77/70
f 69/125/111 70/114/103 71/113/102
f 72/127/26 73/131/25 74/130/114 75/128/112
f 78/136/120 79/66/59 80/65/58
f 81/135/118 82/134/117 83/137/54 84/138/53
f 85/139/121 86/102/93 87/101/92
f 88/129/113 89/90/81 90/89/80
f 91/70/63 92/69/62 93/140/122
f 93/140/122 94/86/77 95/85/76
f 96/176/124 97/177/89 98/178/88
f 99/141/123 100/110/99 101/109/98
